<?xml version="1.0"?>
<svg xmlns="http://www.w3.org/2000/svg" id="Layer_1" data-name="Layer 1" viewBox="0 0 512 512" width="512" height="512">
    <title>Shipping</title>
    <path d="M79.731,319.139l172.687-62.714c15.17-5.509,39.052-6.423,57.128-2.75l-19.964-7.25c-18.2-6.611-48.961-6.611-67.164,0L49.731,309.139l124.11,154.737a49.2,49.2,0,0,1,15.864-7.624Z"
          style="fill:#d4e1f4"/>
    <path d="M189,136.116a7,7,0,0,0,7-7V111.737c0-5.251,3.757-9.737,8.556-9.737h15.016c5.209,0,8.428,5.041,8.428,9.737v17.337a7,7,0,0,0,14,0V111.737a23.858,23.858,0,0,0-14-22.054V31.942A7.178,7.178,0,0,0,220.74,25H202.554C198.688,25,196,28.076,196,31.942V89.969c-9,3.629-14,12.019-14,21.768v17.379A7,7,0,0,0,189,136.116ZM210,70h4V88h-4Zm4-31V56h-4V39Z"
          style="fill:#1ae5be"/>
    <path d="M189,136.116a7,7,0,0,0,7-7V111.737c0-5.251,3.757-9.737,8.556-9.737h15.016c5.209,0,8.428,5.041,8.428,9.737v17.337a7,7,0,0,0,14,0V111.737a23.858,23.858,0,0,0-14-22.054V31.942A7.178,7.178,0,0,0,220.74,25H202.554C198.688,25,196,28.076,196,31.942V89.969c-9,3.629-14,12.019-14,21.768v17.379A7,7,0,0,0,189,136.116ZM210,70h4V88h-4Zm4-31V56h-4V39Z"
          style="fill:#1ae5be"/>
    <path d="M151,271.745a7,7,0,0,0,7-7v-56.2c0-7.168,6.207-12.542,13.375-12.542H340.623c7.168,0,13.377,5.374,13.377,12.542v56.12a7,7,0,1,0,14,0v-56.12C368,193.655,355.511,182,340.623,182H340V133.1a10.823,10.823,0,0,0-10-10.921V95.846C330,82.564,320.369,72,308.022,72H269.164C256.563,72,246,82.786,246,95.846V122H183.023A11.117,11.117,0,0,0,172,133.1V182h-.625C156.487,182,144,193.655,144,208.542v56.2A7,7,0,0,0,151,271.745Zm109-175.9C260,90.6,264.365,86,269.164,86h38.858C313.23,86,316,91.151,316,95.846V122H260ZM186,136h66.963c.116,0,.231.018.349.018s.232-.018.348-.018h69.032c.117,0,.232.018.349.018s.232-.018.349-.018H326v46H186Z"
          style="fill:#0635c9"/>
    <path d="M62.22,334.32l159.976-52.1c.075-.024.149-.05.222-.076,18.2-6.611,48.961-6.611,67.164,0l.147.051,158.644,53.669a7,7,0,1,0,4.486-13.262L294.287,268.955c-21.122-7.642-55.4-7.647-76.534-.015L57.884,321.009A7,7,0,1,0,62.22,334.32Z"
          style="fill:#0635c9"/>
    <path d="M288.874,338.321A32.874,32.874,0,1,0,256,371.2,32.912,32.912,0,0,0,288.874,338.321Zm-51.748,0A18.874,18.874,0,1,1,256,357.2,18.9,18.9,0,0,1,237.126,338.321Z"
          style="fill:#0635c9"/>
    <path d="M476.233,299.315,294.361,233.266c-21.154-7.682-55.57-7.682-76.722,0L35.767,299.315a7,7,0,0,0-3.072,10.96L166.417,477l10.922-8.76L49.731,309.139l172.687-62.714c18.2-6.611,48.961-6.611,67.164,0l172.687,62.714-127.607,159.1L345.584,477,479.305,310.275a7,7,0,0,0-3.072-10.96Z"
          style="fill:#1ae5be"/>
    <path d="M172.025,465.116c-6.447,4.437-11.54,7.942-22.7,7.942s-16.248-3.5-22.7-7.942c-7.09-4.879-15.125-10.409-30.634-10.409a7,7,0,0,0,0,14c11.156,0,16.249,3.5,22.7,7.942,7.09,4.879,15.125,10.409,30.633,10.409s23.544-5.53,30.634-10.41c6.447-4.437,11.54-7.941,22.7-7.941s16.251,3.5,22.7,7.942c7.09,4.879,15.126,10.409,30.635,10.409s23.545-5.53,30.635-10.41c6.447-4.437,11.54-7.941,22.7-7.941s16.252,3.5,22.7,7.942c7.09,4.879,15.127,10.409,30.638,10.409s23.547-5.53,30.637-10.409c6.449-4.438,11.542-7.942,22.7-7.942a7,7,0,0,0,0-14c-15.51,0-23.547,5.53-30.637,10.409-6.449,4.437-11.542,7.942-22.7,7.942s-16.253-3.5-22.7-7.942c-7.09-4.88-15.127-10.409-30.637-10.409s-23.544,5.53-30.634,10.409c-6.447,4.437-11.54,7.942-22.7,7.942s-16.25-3.5-22.7-7.942c-7.09-4.879-15.126-10.409-30.636-10.409S179.115,460.237,172.025,465.116Z"
          style="fill:#0635c9"/>
</svg>
